<?xml version="1.0" encoding="UTF-8"?>
<svg id="Ebene_2" data-name="Ebene 2" xmlns="http://www.w3.org/2000/svg" viewBox="0 0 428.89 50.25">
  <defs>
    <style>
      .cls-1, .cls-2 {
        fill: #fff;
      }

      .cls-3 {
        fill: #3c3c3b;
      }

      .cls-3, .cls-4, .cls-2, .cls-5, .cls-6, .cls-7, .cls-8, .cls-9, .cls-10 {
        stroke: #000;
        stroke-miterlimit: 10;
        stroke-width: .25px;
      }

      .cls-4 {
        fill: #cac1e5;
      }

      .cls-5 {
        fill: #141414;
      }

      .cls-6 {
        fill: #393939;
      }

      .cls-11 {
        fill: #48efaf;
      }

      .cls-12 {
        fill: #f2e6cc;
      }

      .cls-7 {
        fill: #2d2d2d;
      }

      .cls-13 {
        fill: #fff3d7;
      }

      .cls-8 {
        fill: #f5b300;
      }

      .cls-14 {
        fill: #43c979;
      }

      .cls-9 {
        fill: #343434;
      }

      .cls-10 {
        fill: #8c8c8c;
      }
    </style>
  </defs>
  <g id="banner">
    <g>
      <g>
        <g>
          <path class="cls-1" d="M129.37,45c-9.02,0-16.9-6.06-19.21-14.75h10.48c1.81,3.09,5.15,5,8.73,5h60c3.57,0,6.91-1.91,8.72-5h10.48c-2.3,8.69-10.17,14.75-19.2,14.75h-60Z"/>
          <path d="M208.41,30.38c-2.34,8.55-10.12,14.5-19.04,14.5h-60c-8.91,0-16.7-5.95-19.04-14.5h10.24c1.85,3.09,5.21,5,8.8,5h60c3.59,0,6.95-1.91,8.79-5h10.24m.32-.25h-10.71c-1.73,2.99-4.95,5-8.65,5h-60c-3.71,0-6.93-2.01-8.66-5h-10.71c2.22,8.63,10.05,15,19.37,15h60c9.32,0,17.15-6.37,19.36-15h0Z"/>
        </g>
        <g>
          <path class="cls-1" d="M198.09,20c-1.81-3.09-5.15-5-8.72-5h-60c-3.58,0-6.92,1.91-8.73,5h-10.48c2.31-8.69,10.19-14.75,19.21-14.75h60c9.02,0,16.9,6.06,19.2,14.75h-10.48Z"/>
          <path d="M189.37,5.38c8.91,0,16.69,5.95,19.04,14.5h-10.24c-1.85-3.09-5.2-5-8.79-5h-60c-3.6,0-6.96,1.91-8.8,5h-10.24c2.35-8.55,10.14-14.5,19.04-14.5h60m0-.25h-60c-9.32,0-17.15,6.38-19.37,15h10.71c1.73-2.99,4.95-5,8.66-5h60c3.7,0,6.92,2.01,8.65,5h10.71c-2.21-8.62-10.04-15-19.36-15h0Z"/>
        </g>
      </g>
      <g>
        <path class="cls-1" d="M239.37,45c-9.03,0-16.91-6.06-19.21-14.75h10.48c1.82,3.09,5.15,5,8.73,5h60c3.57,0,6.91-1.91,8.72-5h10.48c-2.3,8.69-10.17,14.75-19.2,14.75h-60Zm68.72-25c-1.81-3.09-5.15-5-8.72-5h-60c-3.58,0-6.92,1.91-8.73,5h-10.48c2.3-8.69,10.18-14.75,19.21-14.75h60c9.02,0,16.89,6.06,19.2,14.75h-10.48Z"/>
        <path d="M299.37,5.38c8.91,0,16.69,5.95,19.04,14.5h-10.24c-1.85-3.09-5.2-5-8.79-5h-60c-3.6,0-6.96,1.91-8.8,5h-10.24c2.34-8.55,10.13-14.5,19.05-14.5h60m19.04,25c-2.34,8.55-10.12,14.5-19.04,14.5h-60c-8.92,0-16.71-5.95-19.05-14.5h10.24c1.85,3.09,5.21,5,8.8,5h60c3.59,0,6.95-1.91,8.79-5h10.24m-19.04-25.25h-60c-9.33,0-17.16,6.38-19.37,15h10.71c1.73-2.99,4.95-5,8.66-5h60c3.7,0,6.92,2.01,8.65,5h10.71c-2.21-8.62-10.04-15-19.36-15h0Zm19.36,25h-10.71c-1.73,2.99-4.95,5-8.65,5h-60c-3.71,0-6.93-2.01-8.66-5h-10.71c2.21,8.63,10.04,15,19.37,15h60c9.32,0,17.15-6.37,19.36-15h0Z"/>
      </g>
    </g>
    <rect class="cls-2" x="199.05" y="22.63" width="30" height="5" rx="2.5" ry="2.5"/>
    <g>
      <g>
        <g>
          <path class="cls-1" d="M129.37,45c-9.02,0-16.9-6.06-19.21-14.75h10.48c1.81,3.09,5.15,5,8.73,5h60c3.57,0,6.91-1.91,8.72-5h10.48c-2.3,8.69-10.17,14.75-19.2,14.75h-60Z"/>
          <path d="M208.41,30.38c-2.34,8.55-10.12,14.5-19.04,14.5h-60c-8.91,0-16.7-5.95-19.04-14.5h10.24c1.85,3.09,5.21,5,8.8,5h60c3.59,0,6.95-1.91,8.79-5h10.24m.32-.25h-10.71c-1.73,2.99-4.95,5-8.65,5h-60c-3.71,0-6.93-2.01-8.66-5h-10.71c2.22,8.63,10.05,15,19.37,15h60c9.32,0,17.15-6.37,19.36-15h0Z"/>
        </g>
        <g>
          <path class="cls-1" d="M198.09,20c-1.81-3.09-5.15-5-8.72-5h-60c-3.58,0-6.92,1.91-8.73,5h-10.48c2.31-8.69,10.19-14.75,19.21-14.75h60c9.02,0,16.9,6.06,19.2,14.75h-10.48Z"/>
          <path d="M189.37,5.38c8.91,0,16.69,5.95,19.04,14.5h-10.24c-1.85-3.09-5.2-5-8.79-5h-60c-3.6,0-6.96,1.91-8.8,5h-10.24c2.35-8.55,10.14-14.5,19.04-14.5h60m0-.25h-60c-9.32,0-17.15,6.38-19.37,15h10.71c1.73-2.99,4.95-5,8.66-5h60c3.7,0,6.92,2.01,8.65,5h10.71c-2.21-8.62-10.04-15-19.36-15h0Z"/>
        </g>
      </g>
      <g>
        <path class="cls-1" d="M239.37,45c-9.03,0-16.91-6.06-19.21-14.75h10.48c1.82,3.09,5.15,5,8.73,5h60c3.57,0,6.91-1.91,8.72-5h10.48c-2.3,8.69-10.17,14.75-19.2,14.75h-60Zm68.72-25c-1.81-3.09-5.15-5-8.72-5h-60c-3.58,0-6.92,1.91-8.73,5h-10.48c2.3-8.69,10.18-14.75,19.21-14.75h60c9.02,0,16.89,6.06,19.2,14.75h-10.48Z"/>
        <path d="M299.37,5.38c8.91,0,16.69,5.95,19.04,14.5h-10.24c-1.85-3.09-5.2-5-8.79-5h-60c-3.6,0-6.96,1.91-8.8,5h-10.24c2.34-8.55,10.13-14.5,19.05-14.5h60m19.04,25c-2.34,8.55-10.12,14.5-19.04,14.5h-60c-8.92,0-16.71-5.95-19.05-14.5h10.24c1.85,3.09,5.21,5,8.8,5h60c3.59,0,6.95-1.91,8.79-5h10.24m-19.04-25.25h-60c-9.33,0-17.16,6.38-19.37,15h10.71c1.73-2.99,4.95-5,8.66-5h60c3.7,0,6.92,2.01,8.65,5h10.71c-2.21-8.62-10.04-15-19.36-15h0Zm19.36,25h-10.71c-1.73,2.99-4.95,5-8.65,5h-60c-3.71,0-6.93-2.01-8.66-5h-10.71c2.21,8.63,10.04,15,19.37,15h60c9.32,0,17.15-6.37,19.36-15h0Z"/>
      </g>
    </g>
    <g>
      <g>
        <g>
          <path class="cls-13" d="M239.37,45c-9.02,0-16.9-6.06-19.21-14.75h10.48c1.82,3.09,5.15,5,8.73,5h60c3.57,0,6.91-1.91,8.72-5h10.48c-2.3,8.69-10.17,14.75-19.2,14.75h-60Z"/>
          <path d="M318.41,30.38c-2.34,8.55-10.12,14.5-19.04,14.5h-60c-8.91,0-16.7-5.95-19.04-14.5h10.24c1.85,3.09,5.21,5,8.8,5h60c3.59,0,6.95-1.91,8.79-5h10.24m.32-.25h-10.71c-1.73,2.99-4.95,5-8.65,5h-60c-3.71,0-6.93-2.01-8.66-5h-10.71c2.22,8.63,10.05,15,19.37,15h60c9.32,0,17.15-6.37,19.36-15h0Z"/>
        </g>
        <g>
          <path class="cls-13" d="M308.09,20c-1.81-3.09-5.15-5-8.72-5h-60c-3.58,0-6.92,1.91-8.73,5h-10.48c2.31-8.69,10.19-14.75,19.21-14.75h60c9.02,0,16.89,6.06,19.2,14.75h-10.48Z"/>
          <path d="M299.37,5.38c8.91,0,16.69,5.95,19.04,14.5h-10.24c-1.85-3.09-5.2-5-8.79-5h-60c-3.6,0-6.96,1.91-8.8,5h-10.24c2.35-8.55,10.14-14.5,19.04-14.5h60m0-.25h-60c-9.32,0-17.15,6.38-19.37,15h10.71c1.73-2.99,4.95-5,8.66-5h60c3.7,0,6.92,2.01,8.65,5h10.71c-2.21-8.62-10.04-15-19.36-15h0Z"/>
        </g>
      </g>
      <g>
        <path class="cls-13" d="M349.37,45c-9.03,0-16.91-6.06-19.21-14.75h10.48c1.82,3.09,5.15,5,8.73,5h60c3.57,0,6.91-1.91,8.72-5h10.48c-2.3,8.69-10.17,14.75-19.2,14.75h-60Zm68.72-25c-1.81-3.09-5.15-5-8.72-5h-60c-3.58,0-6.92,1.91-8.73,5h-10.48c2.3-8.69,10.18-14.75,19.21-14.75h60c9.02,0,16.89,6.06,19.2,14.75h-10.48Z"/>
        <path d="M409.37,5.38c8.91,0,16.69,5.95,19.04,14.5h-10.24c-1.85-3.09-5.2-5-8.79-5h-60c-3.6,0-6.96,1.91-8.8,5h-10.24c2.34-8.55,10.13-14.5,19.05-14.5h60m19.04,25c-2.34,8.55-10.12,14.5-19.04,14.5h-60c-8.92,0-16.71-5.95-19.05-14.5h10.24c1.85,3.09,5.21,5,8.8,5h60c3.59,0,6.95-1.91,8.79-5h10.24m-19.04-25.25h-60c-9.33,0-17.16,6.38-19.37,15h10.71c1.73-2.99,4.95-5,8.66-5h60c3.7,0,6.92,2.01,8.65,5h10.71c-2.21-8.62-10.04-15-19.36-15h0Zm19.36,25h-10.71c-1.73,2.99-4.95,5-8.65,5h-60c-3.71,0-6.93-2.01-8.66-5h-10.71c2.21,8.63,10.04,15,19.37,15h60c9.32,0,17.15-6.37,19.36-15h0Z"/>
      </g>
    </g>
    <g>
      <g>
        <path class="cls-13" d="M19.37,45C10.35,45,2.47,38.94,.16,30.25H10.64c1.81,3.09,5.15,5,8.73,5h60c3.57,0,6.91-1.91,8.72-5h10.48c-2.3,8.69-10.17,14.75-19.2,14.75H19.37Z"/>
        <path d="M98.41,30.38c-2.34,8.55-10.12,14.5-19.04,14.5H19.37c-8.91,0-16.7-5.95-19.04-14.5H10.57c1.85,3.09,5.21,5,8.8,5h60c3.59,0,6.95-1.91,8.79-5h10.24m.32-.25h-10.71c-1.73,2.99-4.95,5-8.65,5H19.37c-3.71,0-6.93-2.01-8.66-5H0c2.22,8.63,10.05,15,19.37,15h60c9.32,0,17.15-6.37,19.36-15h0Z"/>
      </g>
      <g>
        <path class="cls-13" d="M88.09,20c-1.81-3.09-5.15-5-8.72-5H19.37c-3.58,0-6.92,1.91-8.73,5H.16C2.48,11.31,10.35,5.25,19.37,5.25h60c9.02,0,16.9,6.06,19.2,14.75h-10.48Z"/>
        <path d="M79.37,5.38c8.91,0,16.69,5.95,19.04,14.5h-10.24c-1.85-3.09-5.2-5-8.79-5H19.37c-3.6,0-6.96,1.91-8.8,5H.33C2.68,11.32,10.46,5.38,19.37,5.38h60m0-.25H19.37C10.05,5.12,2.22,11.51,0,20.12H10.71c1.73-2.99,4.95-5,8.66-5h60c3.7,0,6.92,2.01,8.65,5h10.71c-2.21-8.62-10.04-15-19.36-15h0Z"/>
      </g>
    </g>
    <g>
      <path class="cls-13" d="M129.37,45c-9.03,0-16.91-6.06-19.21-14.75h10.48c1.81,3.09,5.15,5,8.73,5h60c3.57,0,6.91-1.91,8.72-5h10.48c-2.3,8.69-10.17,14.75-19.2,14.75h-60Zm68.72-25c-1.81-3.09-5.15-5-8.72-5h-60c-3.58,0-6.92,1.91-8.73,5h-10.48c2.3-8.69,10.18-14.75,19.21-14.75h60c9.02,0,16.9,6.06,19.2,14.75h-10.48Z"/>
      <path d="M189.37,5.38c8.91,0,16.69,5.95,19.04,14.5h-10.24c-1.85-3.09-5.2-5-8.79-5h-60c-3.6,0-6.96,1.91-8.8,5h-10.24c2.34-8.55,10.13-14.5,19.05-14.5h60m19.04,25c-2.34,8.55-10.12,14.5-19.04,14.5h-60c-8.92,0-16.71-5.95-19.05-14.5h10.24c1.85,3.09,5.21,5,8.8,5h60c3.59,0,6.95-1.91,8.79-5h10.24m-19.04-25.25h-60c-9.33,0-17.16,6.38-19.37,15h10.71c1.73-2.99,4.95-5,8.66-5h60c3.7,0,6.92,2.01,8.65,5h10.71c-2.21-8.62-10.04-15-19.36-15h0Zm19.36,25h-10.71c-1.73,2.99-4.95,5-8.65,5h-60c-3.71,0-6.93-2.01-8.66-5h-10.71c2.21,8.63,10.04,15,19.37,15h60c9.32,0,17.15-6.37,19.36-15h0Z"/>
    </g>
    <g>
      <path class="cls-12" d="M200.55,31.5c-3.52,0-6.38-2.86-6.38-6.38s2.86-6.38,6.38-6.38h27c3.52,0,6.38,2.86,6.38,6.38s-2.86,6.38-6.38,6.38h-27Z"/>
      <path d="M227.55,18.88c3.45,0,6.25,2.8,6.25,6.25s-2.8,6.25-6.25,6.25h-27c-3.45,0-6.25-2.8-6.25-6.25s2.8-6.25,6.25-6.25h27m0-.25h-27c-3.59,0-6.5,2.91-6.5,6.5s2.91,6.5,6.5,6.5h27c3.59,0,6.5-2.91,6.5-6.5s-2.91-6.5-6.5-6.5h0Z"/>
    </g>
    <g>
      <path class="cls-12" d="M310.55,31.5c-3.52,0-6.38-2.86-6.38-6.38s2.86-6.38,6.38-6.38h27c3.52,0,6.38,2.86,6.38,6.38s-2.86,6.38-6.38,6.38h-27Z"/>
      <path d="M337.55,18.88c3.45,0,6.25,2.8,6.25,6.25s-2.8,6.25-6.25,6.25h-27c-3.45,0-6.25-2.8-6.25-6.25s2.8-6.25,6.25-6.25h27m0-.25h-27c-3.59,0-6.5,2.91-6.5,6.5s2.91,6.5,6.5,6.5h27c3.59,0,6.5-2.91,6.5-6.5s-2.91-6.5-6.5-6.5h0Z"/>
    </g>
    <g>
      <path class="cls-12" d="M90.55,31.5c-3.52,0-6.38-2.86-6.38-6.38s2.86-6.38,6.38-6.38h27c3.52,0,6.38,2.86,6.38,6.38s-2.86,6.38-6.38,6.38h-27Z"/>
      <path d="M117.55,18.88c3.45,0,6.25,2.8,6.25,6.25s-2.8,6.25-6.25,6.25h-27c-3.45,0-6.25-2.8-6.25-6.25s2.8-6.25,6.25-6.25h27m0-.25h-27c-3.59,0-6.5,2.91-6.5,6.5s2.91,6.5,6.5,6.5h27c3.59,0,6.5-2.91,6.5-6.5s-2.91-6.5-6.5-6.5h0Z"/>
    </g>
    <g>
      <circle class="cls-8" cx="49.05" cy="25.13" r="25"/>
      <path class="cls-2" d="M42.27,12.35c.87,.24,1.74,.39,2.6,.63,.87,.24,1.74,.39,2.6,.63,.24,.08,.32,0,.39-.24,.32-1.34,.63-2.6,.95-3.94,.08-.24,.16-.32,.39-.24,.79,.24,1.5,.39,2.29,.55,.24,.08,.24,.16,.16,.32-.32,1.26-.63,2.6-.95,3.86,0,.08,0,.16-.08,.32,.63,.16,1.34,.32,1.97,.47,.08,0,.16-.16,.24-.24,.24-1.03,.47-1.97,.79-3l.24-.95c0-.16,.08-.24,.24-.16,.83,.25,1.66,.41,2.58,.67l.03,.04c-.24,1.02-.47,1.97-.71,2.92-.08,.39-.16,.79-.32,1.18-.08,.24,0,.32,.24,.39l2.6,1.18c.79,.47,1.5,1.1,2.05,1.89,.71,1.18,.79,2.44,.47,3.71-.24,.87-.55,1.66-1.18,2.29-.47,.47-1.1,.79-1.74,1.03-.08,0-.16,.08-.32,.08,.32,.24,.63,.39,.95,.63,.95,.71,1.58,1.58,1.89,2.68,.16,.87,.08,1.81-.16,2.68-.32,1.1-.71,2.05-1.42,2.92-.87,1.03-1.97,1.58-3.23,1.74-1.66,.24-3.23,.08-4.81-.16-.24-.08-.39,0-.47,.24-.32,1.26-.63,2.6-.95,3.86-.08,.32-.08,.39-.47,.24-.71-.16-1.5-.39-2.21-.55-.24-.08-.24-.16-.16-.32,.32-1.34,.63-2.68,1.03-3.94,0-.16,.08-.24-.08-.32-.63-.16-1.26-.32-1.97-.47-.16,.71-.39,1.42-.55,2.13-.16,.71-.39,1.42-.55,2.13-.08,.16-.08,.24-.32,.16-.79-.24-1.58-.39-2.37-.55-.24-.08-.24-.16-.16-.32,.32-1.34,.63-2.68,1.03-3.94,0-.08,.08-.16,.08-.32-1.81-.47-3.63-.95-5.52-1.42,.16-.32,.24-.55,.39-.87,.32-.71,.63-1.42,.87-2.05,.08-.24,.16-.24,.39-.24,.55,.16,1.18,.32,1.74,.39,.63,.16,1.1-.16,1.18-.71,1.03-4.02,2.05-8.04,3-12.15,.16-.63-.24-1.34-.95-1.58-.71-.24-1.42-.39-2.05-.55-.16,0-.24-.08-.16-.24,.24-.87,.47-1.81,.71-2.68q-.32,.24-.24,.16h0Zm4.02,19.48c.08,0,.16,.08,.16,.08,1.26,.32,2.6,.71,3.94,.79,.95,.08,1.81,.08,2.68-.24,1.5-.47,2.13-2.44,1.26-3.71-.39-.63-1.03-1.03-1.66-1.42-1.42-.79-3.08-1.1-4.65-1.42-.24-.08-.24,0-.32,.24-.16,.79-.39,1.5-.55,2.29-.32,1.1-.55,2.21-.87,3.39Zm6.62-8.04c.16,0,.55-.08,.87-.16,1.5-.32,2.29-2.05,1.5-3.39-.39-.71-1.1-1.18-1.81-1.5-1.1-.47-2.21-.71-3.39-1.03-.24-.08-.32,0-.39,.24-.39,1.66-.79,3.23-1.26,4.89-.08,.16,0,.24,.16,.32,.32,.08,.55,.16,.87,.24,1.18,.16,2.21,.39,3.47,.39Z"/>
    </g>
    <g>
      <circle class="cls-4" cx="159.05" cy="25.12" r="25"/>
      <g>
        <path class="cls-9" d="M159.05,7.62l-.23,.8V31.57l.23,.23,10.74-6.35-10.74-17.82Z"/>
        <path class="cls-10" d="M159.05,7.62l-10.74,17.82,10.74,6.35V7.62Z"/>
        <path class="cls-3" d="M159.05,33.83l-.13,.16v8.24l.13,.39,10.75-15.14-10.75,6.35Z"/>
        <path class="cls-10" d="M159.05,42.62v-8.79l-10.74-6.35,10.74,15.14Z"/>
        <path class="cls-5" d="M159.05,31.8l10.74-6.35-10.74-4.88v11.23Z"/>
        <path class="cls-6" d="M148.3,25.45l10.74,6.35v-11.23l-10.74,4.88Z"/>
      </g>
    </g>
    <g>
      <circle class="cls-7" cx="269.05" cy="25.12" r="25"/>
      <path class="cls-11" d="M277.99,18.74h-23.94l6.06-6.04h23.94l-6.06,6.04Zm0,18.81h-23.94l6.06-6.04h23.94m-23.94-3.37h23.94l-6.06-6.04h-23.94"/>
    </g>
    <g>
      <circle class="cls-2" cx="379.05" cy="25.12" r="25"/>
      <g id="teacup_logo" data-name="teacup logo">
        <path class="cls-14" d="M391.02,17.97c-.14-1.1-1.84-2.08-4.47-2.76-2.04-.53-4.63-.88-7.5-.97-.5-.02-1-.03-1.51-.03-2.15,0-4.18,.15-5.99,.41-4.45,.64-7.5,1.97-7.5,3.5,0,7.04,3.05,13.14,7.5,16.07,1.81,1.19,3.84,1.86,5.99,1.86,.51,0,1.01-.04,1.51-.11,2.87-.42,5.46-2.04,7.5-4.47,1.27-1.52,2.32-3.35,3.09-5.4,.35,.17,.74,.26,1.13,.26,1.81,0,3.28-1.87,3.28-4.18s-1.33-4-3.03-4.17h0Zm-.25,6.68c-.22,0-.42-.06-.61-.18,.43-1.52,.72-3.14,.82-4.83,.82,.16,1.45,1.21,1.45,2.49,0,1.39-.74,2.51-1.66,2.51h0Z"/>
      </g>
    </g>
  </g>
</svg>