<?xml version="1.0" encoding="UTF-8"?>
<svg id="Ebene_2" data-name="Ebene 2" xmlns="http://www.w3.org/2000/svg" viewBox="0 0 100.25 429.05">
  <defs>
    <style>
      .cls-1 {
        fill: #fff;
      }

      .cls-1, .cls-2, .cls-3 {
        stroke: #000;
        stroke-miterlimit: 10;
        stroke-width: .25px;
      }

      .cls-2 {
        fill: #ffd878;
      }

      .cls-3 {
        fill: #f5b300;
      }
    </style>
  </defs>
  <g id="bitcoin">
    <g>
      <g>
        <g>
          <path class="cls-2" d="M45.12,198.18v10.71c-8.63-2.21-15-10.04-15-19.36v-60c0-9.32,6.37-17.15,15-19.37v10.71c-2.99,1.73-5,4.95-5,8.66v60c0,3.7,2.01,6.92,5,8.65Z"/>
          <path class="cls-2" d="M55.12,120.87v-10.71c8.62,2.22,15,10.05,15,19.37v60c0,9.32-6.38,17.15-15,19.36v-10.71c2.99-1.73,5-4.95,5-8.65v-60c0-3.71-2.01-6.93-5-8.66Z"/>
        </g>
        <path class="cls-2" d="M70.12,299.53v-60c0-9.33-6.38-17.16-15-19.37v10.71c2.99,1.73,5,4.95,5,8.66v60c0,3.7-2.01,6.92-5,8.65v10.71c8.62-2.21,15-10.04,15-19.36Zm-25,8.65c-2.99-1.73-5-4.95-5-8.65v-60c0-3.71,2.01-6.93,5-8.66v-10.71c-8.63,2.21-15,10.04-15,19.37v60c0,9.32,6.37,17.15,15,19.36v-10.71Z"/>
      </g>
      <rect class="cls-2" x="35.13" y="211.71" width="30" height="5" rx="2.5" ry="2.5" transform="translate(264.34 164.09) rotate(90)"/>
      <g>
        <g>
          <path class="cls-2" d="M45.12,198.18v10.71c-8.63-2.21-15-10.04-15-19.36v-60c0-9.32,6.37-17.15,15-19.37v10.71c-2.99,1.73-5,4.95-5,8.66v60c0,3.7,2.01,6.92,5,8.65Z"/>
          <path class="cls-2" d="M55.12,120.87v-10.71c8.62,2.22,15,10.05,15,19.37v60c0,9.32-6.38,17.15-15,19.36v-10.71c2.99-1.73,5-4.95,5-8.65v-60c0-3.71-2.01-6.93-5-8.66Z"/>
        </g>
        <path class="cls-2" d="M70.12,299.53v-60c0-9.33-6.38-17.16-15-19.37v10.71c2.99,1.73,5,4.95,5,8.66v60c0,3.7-2.01,6.92-5,8.65v10.71c8.62-2.21,15-10.04,15-19.36Zm-25,8.65c-2.99-1.73-5-4.95-5-8.65v-60c0-3.71,2.01-6.93,5-8.66v-10.71c-8.63,2.21-15,10.04-15,19.37v60c0,9.32,6.37,17.15,15,19.36v-10.71Z"/>
      </g>
      <g>
        <g>
          <path class="cls-2" d="M45.12,308.18v10.71c-8.63-2.21-15-10.04-15-19.36v-60c0-9.32,6.37-17.15,15-19.37v10.71c-2.99,1.73-5,4.95-5,8.66v60c0,3.7,2.01,6.92,5,8.65Z"/>
          <path class="cls-2" d="M55.12,230.87v-10.71c8.62,2.22,15,10.05,15,19.37v60c0,9.32-6.38,17.15-15,19.36v-10.71c2.99-1.73,5-4.95,5-8.65v-60c0-3.71-2.01-6.93-5-8.66Z"/>
        </g>
        <path class="cls-2" d="M70.12,409.53v-60c0-9.33-6.38-17.16-15-19.37v10.71c2.99,1.73,5,4.95,5,8.66v60c0,3.7-2.01,6.92-5,8.65v10.71c8.62-2.21,15-10.04,15-19.36Zm-25,8.65c-2.99-1.73-5-4.95-5-8.65v-60c0-3.71,2.01-6.93,5-8.66v-10.71c-8.63,2.21-15,10.04-15,19.37v60c0,9.32,6.37,17.15,15,19.36v-10.71Z"/>
      </g>
      <g>
        <path class="cls-2" d="M45.13,88.18v10.71c-8.63-2.21-15-10.04-15-19.36V19.53C30.13,10.21,36.49,2.38,45.13,.16V10.87c-2.99,1.73-5,4.95-5,8.66v60c0,3.7,2.01,6.92,5,8.65Z"/>
        <path class="cls-2" d="M55.13,10.87V.16c8.62,2.22,15,10.05,15,19.37v60c0,9.32-6.38,17.15-15,19.36v-10.71c2.99-1.73,5-4.95,5-8.65V19.53c0-3.71-2.01-6.93-5-8.66Z"/>
      </g>
      <path class="cls-2" d="M70.13,189.53v-60c0-9.33-6.38-17.16-15-19.37v10.71c2.99,1.73,5,4.95,5,8.66v60c0,3.7-2.01,6.92-5,8.65v10.71c8.62-2.21,15-10.04,15-19.36Zm-25,8.65c-2.99-1.73-5-4.95-5-8.65v-60c0-3.71,2.01-6.93,5-8.66v-10.71c-8.63,2.21-15,10.04-15,19.37v60c0,9.32,6.37,17.15,15,19.36v-10.71Z"/>
      <rect class="cls-2" x="30.12" y="207.71" width="40" height="13" rx="6.5" ry="6.5" transform="translate(264.34 164.09) rotate(90)"/>
      <rect class="cls-2" x="30.13" y="317.71" width="40" height="13" rx="6.5" ry="6.5" transform="translate(374.34 274.09) rotate(90)"/>
      <rect class="cls-2" x="30.13" y="97.71" width="40" height="13" rx="6.5" ry="6.5" transform="translate(154.34 54.09) rotate(90)"/>
    </g>
    <g>
      <circle class="cls-3" cx="50.12" cy="214.53" r="50"/>
      <path class="cls-1" d="M36.56,188.97c1.74,.47,3.47,.79,5.21,1.26,1.74,.47,3.47,.79,5.21,1.26,.47,.16,.63,0,.79-.47,.63-2.68,1.26-5.21,1.89-7.89,.16-.47,.32-.63,.79-.47,1.58,.47,3,.79,4.57,1.1,.47,.16,.47,.32,.32,.63-.63,2.52-1.26,5.21-1.89,7.73,0,.16,0,.32-.16,.63,1.26,.32,2.68,.63,3.94,.95,.16,0,.32-.32,.47-.47,.47-2.05,.95-3.94,1.58-5.99l.47-1.89c0-.32,.16-.47,.47-.32,1.66,.5,3.31,.82,5.15,1.33l.05,.09c-.47,2.05-.95,3.94-1.42,5.83-.16,.79-.32,1.58-.63,2.37-.16,.47,0,.63,.47,.79l5.21,2.37c1.58,.95,3,2.21,4.1,3.79,1.42,2.37,1.58,4.89,.95,7.41-.47,1.74-1.1,3.31-2.37,4.57-.95,.95-2.21,1.58-3.47,2.05-.16,0-.32,.16-.63,.16,.63,.47,1.26,.79,1.89,1.26,1.89,1.42,3.15,3.15,3.79,5.36,.32,1.74,.16,3.63-.32,5.36-.63,2.21-1.42,4.1-2.84,5.84-1.74,2.05-3.94,3.15-6.47,3.47-3.31,.47-6.47,.16-9.62-.32-.47-.16-.79,0-.95,.47-.63,2.52-1.26,5.21-1.89,7.73-.16,.63-.16,.79-.95,.47-1.42-.32-3-.79-4.42-1.1-.47-.16-.47-.32-.32-.63,.63-2.68,1.26-5.36,2.05-7.89,0-.32,.16-.47-.16-.63-1.26-.32-2.52-.63-3.94-.95-.32,1.42-.79,2.84-1.1,4.26-.32,1.42-.79,2.84-1.1,4.26-.16,.32-.16,.47-.63,.32-1.58-.47-3.15-.79-4.73-1.1-.47-.16-.47-.32-.32-.63,.63-2.68,1.26-5.36,2.05-7.89,0-.16,.16-.32,.16-.63-3.63-.95-7.26-1.89-11.04-2.84,.32-.63,.47-1.1,.79-1.74,.63-1.42,1.26-2.84,1.74-4.1,.16-.47,.32-.47,.79-.47,1.1,.32,2.37,.63,3.47,.79,1.26,.32,2.21-.32,2.37-1.42,2.05-8.04,4.1-16.09,5.99-24.29,.32-1.26-.47-2.68-1.89-3.15-1.42-.47-2.84-.79-4.1-1.1-.32,0-.47-.16-.32-.47,.47-1.74,.95-3.63,1.42-5.36q-.63,.47-.47,.32h0Zm8.04,38.96c.16,0,.32,.16,.32,.16,2.52,.63,5.21,1.42,7.89,1.58,1.89,.16,3.63,.16,5.36-.47,3-.95,4.26-4.89,2.52-7.41-.79-1.26-2.05-2.05-3.31-2.84-2.84-1.58-6.15-2.21-9.31-2.84-.47-.16-.47,0-.63,.47-.32,1.58-.79,3-1.1,4.57-.63,2.21-1.1,4.42-1.74,6.78Zm13.25-16.09c.32,0,1.1-.16,1.74-.32,3-.63,4.57-4.1,3-6.78-.79-1.42-2.21-2.37-3.63-3-2.21-.95-4.42-1.42-6.78-2.05-.47-.16-.63,0-.79,.47-.79,3.31-1.58,6.47-2.52,9.78-.16,.32,0,.47,.32,.63,.63,.16,1.1,.32,1.74,.47,2.37,.32,4.42,.79,6.94,.79Z"/>
    </g>
  </g>
</svg>