<?xml version="1.0" encoding="UTF-8"?>
<svg id="Ebene_2" data-name="Ebene 2" xmlns="http://www.w3.org/2000/svg" viewBox="0 0 100.25 429.05">
  <defs>
    <style>
      .cls-1 {
        fill: #3c3c3b;
      }

      .cls-1, .cls-2, .cls-3, .cls-4, .cls-5, .cls-6, .cls-7 {
        stroke: #000;
        stroke-miterlimit: 10;
        stroke-width: .25px;
      }

      .cls-2 {
        fill: #f4f3ff;
      }

      .cls-3 {
        fill: #cac1e5;
      }

      .cls-4 {
        fill: #141414;
      }

      .cls-5 {
        fill: #393939;
      }

      .cls-6 {
        fill: #343434;
      }

      .cls-7 {
        fill: #8c8c8c;
      }
    </style>
  </defs>
  <g id="ether">
    <g>
      <g>
        <g>
          <g>
            <path class="cls-2" d="M45.12,198.18v10.71c-8.63-2.21-15-10.04-15-19.36v-60c0-9.32,6.37-17.15,15-19.37v10.71c-2.99,1.73-5,4.95-5,8.66v60c0,3.7,2.01,6.92,5,8.65Z"/>
            <path class="cls-2" d="M55.12,120.87v-10.71c8.62,2.22,15,10.05,15,19.37v60c0,9.32-6.38,17.15-15,19.36v-10.71c2.99-1.73,5-4.95,5-8.65v-60c0-3.71-2.01-6.93-5-8.66Z"/>
          </g>
          <path class="cls-2" d="M70.12,299.53v-60c0-9.33-6.38-17.16-15-19.37v10.71c2.99,1.73,5,4.95,5,8.66v60c0,3.7-2.01,6.92-5,8.65v10.71c8.62-2.21,15-10.04,15-19.36Zm-25,8.65c-2.99-1.73-5-4.95-5-8.65v-60c0-3.71,2.01-6.93,5-8.66v-10.71c-8.63,2.21-15,10.04-15,19.37v60c0,9.32,6.37,17.15,15,19.36v-10.71Z"/>
        </g>
        <rect class="cls-2" x="35.13" y="211.71" width="30" height="5" rx="2.5" ry="2.5" transform="translate(264.34 164.09) rotate(90)"/>
        <g>
          <g>
            <path class="cls-2" d="M45.12,198.18v10.71c-8.63-2.21-15-10.04-15-19.36v-60c0-9.32,6.37-17.15,15-19.37v10.71c-2.99,1.73-5,4.95-5,8.66v60c0,3.7,2.01,6.92,5,8.65Z"/>
            <path class="cls-2" d="M55.12,120.87v-10.71c8.62,2.22,15,10.05,15,19.37v60c0,9.32-6.38,17.15-15,19.36v-10.71c2.99-1.73,5-4.95,5-8.65v-60c0-3.71-2.01-6.93-5-8.66Z"/>
          </g>
          <path class="cls-2" d="M70.12,299.53v-60c0-9.33-6.38-17.16-15-19.37v10.71c2.99,1.73,5,4.95,5,8.66v60c0,3.7-2.01,6.92-5,8.65v10.71c8.62-2.21,15-10.04,15-19.36Zm-25,8.65c-2.99-1.73-5-4.95-5-8.65v-60c0-3.71,2.01-6.93,5-8.66v-10.71c-8.63,2.21-15,10.04-15,19.37v60c0,9.32,6.37,17.15,15,19.36v-10.71Z"/>
        </g>
        <g>
          <g>
            <path class="cls-2" d="M45.12,308.18v10.71c-8.63-2.21-15-10.04-15-19.36v-60c0-9.32,6.37-17.15,15-19.37v10.71c-2.99,1.73-5,4.95-5,8.66v60c0,3.7,2.01,6.92,5,8.65Z"/>
            <path class="cls-2" d="M55.12,230.87v-10.71c8.62,2.22,15,10.05,15,19.37v60c0,9.32-6.38,17.15-15,19.36v-10.71c2.99-1.73,5-4.95,5-8.65v-60c0-3.71-2.01-6.93-5-8.66Z"/>
          </g>
          <path class="cls-2" d="M70.12,409.53v-60c0-9.33-6.38-17.16-15-19.37v10.71c2.99,1.73,5,4.95,5,8.66v60c0,3.7-2.01,6.92-5,8.65v10.71c8.62-2.21,15-10.04,15-19.36Zm-25,8.65c-2.99-1.73-5-4.95-5-8.65v-60c0-3.71,2.01-6.93,5-8.66v-10.71c-8.63,2.21-15,10.04-15,19.37v60c0,9.32,6.37,17.15,15,19.36v-10.71Z"/>
        </g>
        <g>
          <path class="cls-2" d="M45.13,88.18v10.71c-8.63-2.21-15-10.04-15-19.36V19.53C30.13,10.21,36.49,2.38,45.13,.16V10.87c-2.99,1.73-5,4.95-5,8.66v60c0,3.7,2.01,6.92,5,8.65Z"/>
          <path class="cls-2" d="M55.13,10.87V.16c8.62,2.22,15,10.05,15,19.37v60c0,9.32-6.38,17.15-15,19.36v-10.71c2.99-1.73,5-4.95,5-8.65V19.53c0-3.71-2.01-6.93-5-8.66Z"/>
        </g>
        <path class="cls-2" d="M70.13,189.53v-60c0-9.33-6.38-17.16-15-19.37v10.71c2.99,1.73,5,4.95,5,8.66v60c0,3.7-2.01,6.92-5,8.65v10.71c8.62-2.21,15-10.04,15-19.36Zm-25,8.65c-2.99-1.73-5-4.95-5-8.65v-60c0-3.71,2.01-6.93,5-8.66v-10.71c-8.63,2.21-15,10.04-15,19.37v60c0,9.32,6.37,17.15,15,19.36v-10.71Z"/>
        <rect class="cls-2" x="30.12" y="207.71" width="40" height="13" rx="6.5" ry="6.5" transform="translate(264.34 164.09) rotate(90)"/>
        <rect class="cls-2" x="30.13" y="317.71" width="40" height="13" rx="6.5" ry="6.5" transform="translate(374.34 274.09) rotate(90)"/>
        <rect class="cls-2" x="30.13" y="97.71" width="40" height="13" rx="6.5" ry="6.5" transform="translate(154.34 54.09) rotate(90)"/>
      </g>
      <g>
        <circle class="cls-3" cx="50.12" cy="214.53" r="50"/>
        <g>
          <path class="cls-6" d="M50.12,179.53l-.47,1.6v46.29l.47,.47,21.49-12.7-21.49-35.65Z"/>
          <path class="cls-7" d="M50.12,179.53l-21.49,35.65,21.49,12.7v-48.35Z"/>
          <path class="cls-1" d="M50.12,231.94l-.26,.32v16.49l.26,.77,21.5-30.28-21.5,12.69Z"/>
          <path class="cls-7" d="M50.12,249.53v-17.58l-21.49-12.69,21.49,30.28Z"/>
          <path class="cls-4" d="M50.12,227.88l21.48-12.7-21.48-9.77v22.47Z"/>
          <path class="cls-5" d="M28.63,215.18l21.48,12.7v-22.47l-21.48,9.77Z"/>
        </g>
      </g>
    </g>
  </g>
</svg>